<?xml version="1.0" encoding="utf-8"?>
<!-- Generator: Adobe Illustrator 17.0.0, SVG Export Plug-In . SVG Version: 6.00 Build 0)  -->
<!DOCTYPE svg PUBLIC "-//W3C//DTD SVG 1.1//EN" "http://www.w3.org/Graphics/SVG/1.1/DTD/svg11.dtd">
<svg version="1.1" id="svgClipPathID" xmlns="http://www.w3.org/2000/svg" xmlns:xlink="http://www.w3.org/1999/xlink" x="0px" y="0px"
	 width="612px" height="792px" viewBox="0 0 612 792" style="enable-background:new 0 0 612 792;" xml:space="preserve">
<style type="text/css">
	.st0{fill:none;stroke:#6ABD45;stroke-width:75.72;stroke-miterlimit:10;}
</style>
<path class="st0" d="M294.9,7716.5c0,0-291.7-11.2-434.7-70.1c-143-58.9-210.3-269.2-210.3-269.2s-120.6,36.5-241.2,64.5
	s-510.4,89.7-667.5,8.4c-157-81.3-316.9-269.2-476.8-678.7s-134.6-908.6-131.8-1155.4s109.4-664.7,154.2-875
	c44.9-210.3,67.3-653.4,30.8-1102.1c-36.5-448.7-109.4-1407.8-117.8-1534s-22.4-614.2-22.4-712.3s0-1677.1-2.8-1884.6
	s5.6-998.4-2.8-1248s-8.4-423.5,5.6-535.6c14-112.2,75.7-359,157-499.2c81.3-140.2,409.4-701.1,490.8-863.8
	c81.3-162.7,628.2-1312.5,717.9-1522.8c89.7-210.3,115-291.7,134.6-381.4s28-330.9,19.6-333.7c-89.7-5.6-148.6-61.7-154.2-75.7
	c-5.6-14-2.8-47.7-2.8-61.7c0-14,22.4-30.8,22.4-30.8s0-50.5,0-72.9s14-129,11.2-148.6c-2.8-19.6,14-50.5,14-50.5
	c-5.6-143,38.5-307.4,38.5-370.5c0,0-38.5-159.6,219.5-193.2c0,0,274.8-44.9,443.1-44.9s443.1,44.9,443.1,44.9
	c258,33.7,219.5,193.2,219.5,193.2c0,63.1,44.1,227.4,38.5,370.5c0,0,16.8,30.8,14,50.5c-2.8,19.6,11.2,126.2,11.2,148.6
	s0,72.9,0,72.9s22.4,16.8,22.4,30.8c0,14,2.8,47.7-2.8,61.7c-5.6,14-64.5,70.1-154.2,75.7c-8.4,2.8,0,244,19.6,333.7
	s44.9,171.1,134.6,381.4c89.7,210.3,636.6,1360.2,717.9,1522.8c81.3,162.7,409.4,723.5,490.8,863.8s143,387,157,499.2
	c14,112.2,14,286.1,5.6,535.6s0,1040.4-2.8,1248s-2.8,1786.4-2.8,1884.6s-14,586.1-22.4,712.3s-81.3,1085.3-117.8,1534
	s-14,891.8,30.8,1102.1c44.9,210.3,151.4,628.2,154.2,875s28,746-131.8,1155.4s-319.7,597.3-476.8,678.7
	c-157,81.3-546.9,19.6-667.5-8.4s-241.2-64.5-241.2-64.5s-67.3,210.3-210.3,269.2C575.4,7705.3,294.9,7716.5,294.9,7716.5z"/>
</svg>
